<?xml version="1.0" encoding="UTF-8" standalone="no"?>
<svg width="237px" height="231px" viewBox="0 0 237 231" version="1.1" xmlns="http://www.w3.org/2000/svg" xmlns:xlink="http://www.w3.org/1999/xlink" xmlns:sketch="http://www.bohemiancoding.com/sketch/ns">
    <!-- Generator: Sketch 3.3.3 (12072) - http://www.bohemiancoding.com/sketch -->
    <title>SOCLogo</title>
    <desc>Created with Sketch.</desc>
    <defs></defs>
    <g id="Page-1" stroke="none" stroke-width="1" fill="none" fill-rule="evenodd" sketch:type="MSPage">
        <g id="Artboard-1" sketch:type="MSArtboardGroup" transform="translate(-82.000000, -67.000000)" fill="#FFFFFF">
            <g id="SOCLogo" sketch:type="MSLayerGroup" transform="translate(82.000000, 67.000000)">
                <g id="Group" sketch:type="MSShapeGroup">
                    <g id="Shape">
                        <g transform="translate(14.000000, 0.000000)">
                            <path d="M18.1,76.4 C92.6,28.9 200.4,-7.9 216.7,4.6 C232.4,16.6 195.9,203 195.9,203 C184.1,250.6 186.9,212 187.9,201 C197.4,96.5 230.5,31.2 205.7,19.5 C180.9,7.8 80.1,47.6 18.4,80.3 C1.1,92.1 -6.2,93.3 18.1,76.4 L18.1,76.4 Z"></path>
                            <path d="M188,228.2 C187.3,228.2 186.7,227.9 186.2,227.4 C185.5,226.6 183.7,224.6 185.9,200.8 C189.8,158 197.6,122 203.9,93.1 C212.4,53.6 218.1,27.6 204.8,21.3 C202.1,20 198.3,19.4 193.4,19.4 C166.1,19.4 93.6,42.8 19.4,82 C16.1,84.2 5.8,91.2 2.9,91.2 C1.9,91.2 1,90.6 0.7,89.7 C0.2,88.2 -0.2,86.9 17.1,74.9 C83.1,32.9 172.6,0.3 205.7,0.3 C211.5,0.3 215.5,1.2 218,3.2 C223.5,7.4 223.1,25.6 222.1,41 C221,58 218.4,80.8 214.2,108.8 C207.1,156.4 198,203.1 197.9,203.6 L197.9,203.7 C195.9,211.9 194.1,218 192.8,222 C191,226.7 189.8,228.2 188,228.2 L188,228.2 L188,228.2 Z M193.4,15.4 C198.9,15.4 203.3,16.2 206.5,17.7 C222.6,25.3 217,51.2 207.8,94 C201.6,122.8 193.8,158.7 189.9,201.3 C189.2,209.2 188.8,216.3 188.9,220.7 C190,217.6 191.6,212.2 194,202.7 C194.3,200.9 203.3,155 210.3,108.1 C223.1,22.3 218.3,8.3 215.6,6.3 C214.4,5.4 211.7,4.3 205.7,4.3 C174,4.3 89.4,34.9 24.7,74.9 C75,48.9 156.2,15.4 193.4,15.4 L193.4,15.4 Z"></path>
                        </g>
                        <g transform="translate(30.000000, 34.000000)">
                            <path d="M180.8,4.1 C153,51.7 116.8,103.7 73.2,138.3 C48.4,158 21.8,116.5 10.5,99.4 C8.2,95.9 6,92.7 2.1,91.2 C1.6,94.7 3.7,97 6,100.2 C16.2,114.6 27.8,129.5 42.4,139.7 C60.8,152.6 73.9,150 89.8,134.8 C129,97.2 166.5,56.7 185.2,4.7 C187,-0.2 180.8,4.1 180.8,4.1 L180.8,4.1 Z"></path>
                            <path d="M64,150.1 L64,150.1 C57,150.1 49.5,147.3 41.2,141.5 C26.4,131.2 14.7,116.2 4.3,101.5 C4.1,101.1 3.8,100.8 3.6,100.5 C1.6,97.7 -0.4,95 0.1,91.1 L0.4,88.6 L2.7,89.4 C7.3,91.1 9.9,94.9 12.1,98.3 L12.9,99.5 C21.9,113.1 40.7,141.5 59.3,141.5 L59.3,141.5 C63.7,141.5 67.9,139.9 71.9,136.7 C108,108 144,63 179,3 L179.1,2.8 L179.3,2.6 C179.5,2.4 182.4,0.3 184.6,0.3 C185.6,0.3 186.4,0.7 187,1.5 C187.9,2.8 187.5,4.4 187.1,5.5 C168.3,57.7 129.9,99.3 91.2,136.3 C81.3,145.9 72.9,150.1 64,150.1 L64,150.1 Z M58.9,145.5 C60.6,145.9 62.4,146.1 64,146.1 L64,146.1 C71.8,146.1 79.3,142.2 88.4,133.5 C132.4,91.3 165.4,53.3 183,5.1 C182.8,5.2 182.5,5.4 182.3,5.5 C147.1,65.7 110.8,111 74.5,139.9 C69.6,143.7 64.4,145.6 58.9,145.5 L58.9,145.5 Z M5.2,95.7 C5.6,96.4 6.2,97.2 6.9,98.1 C7.1,98.4 7.4,98.8 7.7,99.2 C9,101.1 10.3,102.9 11.7,104.8 C11,103.8 10.4,102.8 9.7,101.9 L8.9,100.7 C7.7,98.8 6.5,97.1 5.2,95.7 L5.2,95.7 Z"></path>
                        </g>
                        <g transform="translate(0.000000, 180.000000)">
                            <path d="M179.2,41.7 C58.3,13.7 47.5,59.9 14.8,30.5 C3.6,20.6 5.4,8.4 5.4,8.4 C5.9,-2.7 1.8,4.8 2.5,8.7 C2.5,8.7 2,26.4 17,37.5 C52.5,57.7 35.8,35.3 191.8,48.2 C199.3,48.1 179.2,41.7 179.2,41.7 L179.2,41.7 Z"></path>
                            <path d="M191.8,50.2 L191.8,50.2 C157.5,47.4 127.6,45.9 102.9,45.9 C81.8,45.9 68.3,46.9 58.5,47.6 C52.9,48 48.6,48.3 44.7,48.3 C35.1,48.3 28.7,46.3 16.2,39.2 L16,39.1 C1.1,28 0.7,10.9 0.7,8.8 C0.3,6.2 1.3,3 2.5,1.6 C3.3,0.7 4.1,0.5 4.6,0.5 C5.3,0.5 5.9,0.8 6.4,1.3 C7.1,2.1 7.8,3.5 7.6,8.5 L7.6,8.7 C7.5,9.2 6.1,20.1 16.3,29 C24,35.9 30.4,38.7 38.6,38.7 L38.6,38.7 C44.1,38.7 50.1,37.5 57.6,35.9 C69.6,33.4 84.6,30.3 106.4,30.3 C128.2,30.3 152.2,33.4 179.8,39.8 L180,39.8 C196.1,45 195.9,46.5 195.6,48.1 C195.1,50.2 192.7,50.2 191.8,50.2 L191.8,50.2 L191.8,50.2 Z M102.8,42 C125.9,42 153.3,43.2 184.6,45.7 C182.7,45 180.6,44.3 178.7,43.7 C151.5,37.4 127.8,34.3 106.3,34.3 C84.8,34.3 70.1,37.4 58.3,39.9 C50.8,41.5 44.4,42.8 38.4,42.8 L38.4,42.8 C35.1,42.8 32,42.4 29,41.5 C34.5,43.8 38.9,44.5 44.6,44.5 C48.3,44.5 52.6,44.2 58.1,43.8 C68,43 81.6,42 102.8,42 L102.8,42 Z M18.1,35.9 C18.2,36 18.4,36.1 18.5,36.1 C17.8,35.6 17.1,35.1 16.4,34.5 C17,35 17.6,35.5 18.1,35.9 L18.1,35.9 Z"></path>
                        </g>
                    </g>
                </g>
            </g>
        </g>
    </g>
</svg>